<svg xmlns="http://www.w3.org/2000/svg" viewBox="0 0 1000 1000" width="1000" height="1000" shape-rendering="crispEdges"><path d="M490,300h10v10h-10zM500,300h10v10h-10zM510,300h10v10h-10zM520,300h10v10h-10zM530,300h10v10h-10zM540,300h10v10h-10zM550,300h10v10h-10zM480,310h10v10h-10zM540,310h10v10h-10zM550,310h10v10h-10zM560,310h10v10h-10zM570,310h10v10h-10zM580,310h10v10h-10zM590,310h10v10h-10zM470,320h10v10h-10zM480,320h10v10h-10zM580,320h10v10h-10zM590,320h10v10h-10zM600,320h10v10h-10zM610,320h10v10h-10zM480,330h10v10h-10zM490,330h10v10h-10zM610,330h10v10h-10zM620,330h10v10h-10zM630,330h10v10h-10zM640,330h10v10h-10zM490,340h10v10h-10zM500,340h10v10h-10zM510,340h10v10h-10zM630,340h10v10h-10zM640,340h10v10h-10zM650,340h10v10h-10zM500,350h10v10h-10zM510,350h10v10h-10zM520,350h10v10h-10zM650,350h10v10h-10zM660,350h10v10h-10zM670,350h10v10h-10zM410,360h10v10h-10zM420,360h10v10h-10zM430,360h10v10h-10zM440,360h10v10h-10zM450,360h10v10h-10zM460,360h10v10h-10zM470,360h10v10h-10zM480,360h10v10h-10zM490,360h10v10h-10zM520,360h10v10h-10zM530,360h10v10h-10zM540,360h10v10h-10zM550,360h10v10h-10zM670,360h10v10h-10zM680,360h10v10h-10zM690,360h10v10h-10zM400,370h10v10h-10zM410,370h10v10h-10zM470,370h10v10h-10zM480,370h10v10h-10zM490,370h10v10h-10zM500,370h10v10h-10zM510,370h10v10h-10zM520,370h10v10h-10zM530,370h10v10h-10zM540,370h10v10h-10zM550,370h10v10h-10zM560,370h10v10h-10zM570,370h10v10h-10zM680,370h10v10h-10zM690,370h10v10h-10zM700,370h10v10h-10zM390,380h10v10h-10zM530,380h10v10h-10zM540,380h10v10h-10zM550,380h10v10h-10zM560,380h10v10h-10zM570,380h10v10h-10zM580,380h10v10h-10zM590,380h10v10h-10zM700,380h10v10h-10zM710,380h10v10h-10zM720,380h10v10h-10zM390,390h10v10h-10zM400,390h10v10h-10zM570,390h10v10h-10zM580,390h10v10h-10zM590,390h10v10h-10zM710,390h10v10h-10zM720,390h10v10h-10zM730,390h10v10h-10zM400,400h10v10h-10zM410,400h10v10h-10zM730,400h10v10h-10zM740,400h10v10h-10zM750,400h10v10h-10zM760,400h10v10h-10zM770,400h10v10h-10zM780,400h10v10h-10zM790,400h10v10h-10zM800,400h10v10h-10zM410,410h10v10h-10zM420,410h10v10h-10zM790,410h10v10h-10zM800,410h10v10h-10zM810,410h10v10h-10zM820,410h10v10h-10zM830,410h10v10h-10zM420,420h10v10h-10zM430,420h10v10h-10zM440,420h10v10h-10zM820,420h10v10h-10zM830,420h10v10h-10zM840,420h10v10h-10zM440,430h10v10h-10zM450,430h10v10h-10zM460,430h10v10h-10zM470,430h10v10h-10zM840,430h10v10h-10zM850,430h10v10h-10zM860,430h10v10h-10zM460,440h10v10h-10zM470,440h10v10h-10zM480,440h10v10h-10zM490,440h10v10h-10zM500,440h10v10h-10zM510,440h10v10h-10zM850,440h10v10h-10zM860,440h10v10h-10zM870,440h10v10h-10zM490,450h10v10h-10zM500,450h10v10h-10zM510,450h10v10h-10zM520,450h10v10h-10zM530,450h10v10h-10zM540,450h10v10h-10zM550,450h10v10h-10zM560,450h10v10h-10zM860,450h10v10h-10zM870,450h10v10h-10zM880,450h10v10h-10zM250,460h10v10h-10zM260,460h10v10h-10zM270,460h10v10h-10zM540,460h10v10h-10zM550,460h10v10h-10zM560,460h10v10h-10zM570,460h10v10h-10zM580,460h10v10h-10zM590,460h10v10h-10zM600,460h10v10h-10zM610,460h10v10h-10zM620,460h10v10h-10zM630,460h10v10h-10zM640,460h10v10h-10zM650,460h10v10h-10zM660,460h10v10h-10zM670,460h10v10h-10zM870,460h10v10h-10zM880,460h10v10h-10zM890,460h10v10h-10zM240,470h10v10h-10zM250,470h10v10h-10zM270,470h10v10h-10zM280,470h10v10h-10zM290,470h10v10h-10zM670,470h10v10h-10zM880,470h10v10h-10zM890,470h10v10h-10zM900,470h10v10h-10zM230,480h10v10h-10zM280,480h10v10h-10zM290,480h10v10h-10zM360,480h10v10h-10zM370,480h10v10h-10zM380,480h10v10h-10zM390,480h10v10h-10zM400,480h10v10h-10zM410,480h10v10h-10zM420,480h10v10h-10zM430,480h10v10h-10zM440,480h10v10h-10zM660,480h10v10h-10zM890,480h10v10h-10zM900,480h10v10h-10zM220,490h10v10h-10zM290,490h10v10h-10zM300,490h10v10h-10zM320,490h10v10h-10zM330,490h10v10h-10zM340,490h10v10h-10zM350,490h10v10h-10zM360,490h10v10h-10zM370,490h10v10h-10zM380,490h10v10h-10zM390,490h10v10h-10zM400,490h10v10h-10zM410,490h10v10h-10zM420,490h10v10h-10zM430,490h10v10h-10zM440,490h10v10h-10zM450,490h10v10h-10zM460,490h10v10h-10zM470,490h10v10h-10zM480,490h10v10h-10zM490,490h10v10h-10zM500,490h10v10h-10zM650,490h10v10h-10zM660,490h10v10h-10zM900,490h10v10h-10zM910,490h10v10h-10zM210,500h10v10h-10zM300,500h10v10h-10zM310,500h10v10h-10zM320,500h10v10h-10zM480,500h10v10h-10zM490,500h10v10h-10zM500,500h10v10h-10zM510,500h10v10h-10zM520,500h10v10h-10zM530,500h10v10h-10zM540,500h10v10h-10zM550,500h10v10h-10zM620,500h10v10h-10zM630,500h10v10h-10zM640,500h10v10h-10zM910,500h10v10h-10zM210,510h10v10h-10zM540,510h10v10h-10zM550,510h10v10h-10zM560,510h10v10h-10zM570,510h10v10h-10zM580,510h10v10h-10zM590,510h10v10h-10zM600,510h10v10h-10zM610,510h10v10h-10zM620,510h10v10h-10zM910,510h10v10h-10zM920,510h10v10h-10zM210,520h10v10h-10zM910,520h10v10h-10zM920,520h10v10h-10zM210,530h10v10h-10zM910,530h10v10h-10zM920,530h10v10h-10zM210,540h10v10h-10zM910,540h10v10h-10zM210,550h10v10h-10zM220,550h10v10h-10zM910,550h10v10h-10zM210,560h10v10h-10zM220,560h10v10h-10zM230,560h10v10h-10zM900,560h10v10h-10zM220,570h10v10h-10zM230,570h10v10h-10zM880,570h10v10h-10zM890,570h10v10h-10zM220,580h10v10h-10zM230,580h10v10h-10zM860,580h10v10h-10zM870,580h10v10h-10zM880,580h10v10h-10zM220,590h10v10h-10zM800,590h10v10h-10zM810,590h10v10h-10zM820,590h10v10h-10zM830,590h10v10h-10zM840,590h10v10h-10zM850,590h10v10h-10zM860,590h10v10h-10zM220,600h10v10h-10zM790,600h10v10h-10zM800,600h10v10h-10zM810,600h10v10h-10zM820,600h10v10h-10zM210,610h10v10h-10zM220,610h10v10h-10zM780,610h10v10h-10zM150,620h10v10h-10zM160,620h10v10h-10zM170,620h10v10h-10zM180,620h10v10h-10zM190,620h10v10h-10zM200,620h10v10h-10zM210,620h10v10h-10zM770,620h10v10h-10zM780,620h10v10h-10zM140,630h10v10h-10zM170,630h10v10h-10zM180,630h10v10h-10zM190,630h10v10h-10zM200,630h10v10h-10zM770,630h10v10h-10zM130,640h10v10h-10zM770,640h10v10h-10zM120,650h10v10h-10zM770,650h10v10h-10zM780,650h10v10h-10zM790,650h10v10h-10zM110,660h10v10h-10zM790,660h10v10h-10zM800,660h10v10h-10zM810,660h10v10h-10zM100,670h10v10h-10zM810,670h10v10h-10zM820,670h10v10h-10zM830,670h10v10h-10zM90,680h10v10h-10zM830,680h10v10h-10zM840,680h10v10h-10zM850,680h10v10h-10zM860,680h10v10h-10zM80,690h10v10h-10zM390,690h10v10h-10zM400,690h10v10h-10zM410,690h10v10h-10zM420,690h10v10h-10zM430,690h10v10h-10zM440,690h10v10h-10zM450,690h10v10h-10zM850,690h10v10h-10zM860,690h10v10h-10zM870,690h10v10h-10zM880,690h10v10h-10zM890,690h10v10h-10zM70,700h10v10h-10zM380,700h10v10h-10zM390,700h10v10h-10zM440,700h10v10h-10zM450,700h10v10h-10zM460,700h10v10h-10zM470,700h10v10h-10zM480,700h10v10h-10zM490,700h10v10h-10zM500,700h10v10h-10zM880,700h10v10h-10zM890,700h10v10h-10zM900,700h10v10h-10zM910,700h10v10h-10zM60,710h10v10h-10zM360,710h10v10h-10zM370,710h10v10h-10zM480,710h10v10h-10zM490,710h10v10h-10zM500,710h10v10h-10zM510,710h10v10h-10zM520,710h10v10h-10zM530,710h10v10h-10zM540,710h10v10h-10zM550,710h10v10h-10zM560,710h10v10h-10zM910,710h10v10h-10zM920,710h10v10h-10zM930,710h10v10h-10zM40,720h10v10h-10zM50,720h10v10h-10zM160,720h10v10h-10zM170,720h10v10h-10zM180,720h10v10h-10zM190,720h10v10h-10zM200,720h10v10h-10zM340,720h10v10h-10zM350,720h10v10h-10zM360,720h10v10h-10zM540,720h10v10h-10zM550,720h10v10h-10zM560,720h10v10h-10zM570,720h10v10h-10zM580,720h10v10h-10zM590,720h10v10h-10zM600,720h10v10h-10zM610,720h10v10h-10zM620,720h10v10h-10zM630,720h10v10h-10zM640,720h10v10h-10zM650,720h10v10h-10zM660,720h10v10h-10zM670,720h10v10h-10zM680,720h10v10h-10zM690,720h10v10h-10zM700,720h10v10h-10zM710,720h10v10h-10zM720,720h10v10h-10zM930,720h10v10h-10zM940,720h10v10h-10zM30,730h10v10h-10zM40,730h10v10h-10zM150,730h10v10h-10zM190,730h10v10h-10zM200,730h10v10h-10zM210,730h10v10h-10zM220,730h10v10h-10zM230,730h10v10h-10zM240,730h10v10h-10zM250,730h10v10h-10zM260,730h10v10h-10zM270,730h10v10h-10zM280,730h10v10h-10zM290,730h10v10h-10zM300,730h10v10h-10zM310,730h10v10h-10zM320,730h10v10h-10zM330,730h10v10h-10zM340,730h10v10h-10zM710,730h10v10h-10zM720,730h10v10h-10zM730,730h10v10h-10zM740,730h10v10h-10zM750,730h10v10h-10zM760,730h10v10h-10zM940,730h10v10h-10zM950,730h10v10h-10zM20,740h10v10h-10zM30,740h10v10h-10zM140,740h10v10h-10zM230,740h10v10h-10zM240,740h10v10h-10zM250,740h10v10h-10zM260,740h10v10h-10zM270,740h10v10h-10zM280,740h10v10h-10zM290,740h10v10h-10zM300,740h10v10h-10zM750,740h10v10h-10zM760,740h10v10h-10zM770,740h10v10h-10zM780,740h10v10h-10zM790,740h10v10h-10zM800,740h10v10h-10zM950,740h10v10h-10zM20,750h10v10h-10zM130,750h10v10h-10zM790,750h10v10h-10zM800,750h10v10h-10zM810,750h10v10h-10zM820,750h10v10h-10zM830,750h10v10h-10zM950,750h10v10h-10zM10,760h10v10h-10zM20,760h10v10h-10zM110,760h10v10h-10zM120,760h10v10h-10zM820,760h10v10h-10zM830,760h10v10h-10zM840,760h10v10h-10zM850,760h10v10h-10zM860,760h10v10h-10zM950,760h10v10h-10zM10,770h10v10h-10zM20,770h10v10h-10zM90,770h10v10h-10zM100,770h10v10h-10zM110,770h10v10h-10zM850,770h10v10h-10zM860,770h10v10h-10zM870,770h10v10h-10zM880,770h10v10h-10zM950,770h10v10h-10zM20,780h10v10h-10zM30,780h10v10h-10zM40,780h10v10h-10zM60,780h10v10h-10zM70,780h10v10h-10zM80,780h10v10h-10zM90,780h10v10h-10zM870,780h10v10h-10zM880,780h10v10h-10zM890,780h10v10h-10zM900,780h10v10h-10zM910,780h10v10h-10zM930,780h10v10h-10zM940,780h10v10h-10zM950,780h10v10h-10zM30,790h10v10h-10zM40,790h10v10h-10zM50,790h10v10h-10zM60,790h10v10h-10zM70,790h10v10h-10zM900,790h10v10h-10zM910,790h10v10h-10zM920,790h10v10h-10zM930,790h10v10h-10zM830,970h10v10h-10zM820,980h10v10h-10zM830,980h10v10h-10zM840,980h10v10h-10zM820,990h10v10h-10zM840,990h10v10h-10z" fill="#3b82f6" /></svg>