<svg xmlns="http://www.w3.org/2000/svg" viewBox="0 0 1000 1000" width="1000" height="1000" shape-rendering="crispEdges"><path d="M340,360h10v10h-10zM350,360h10v10h-10zM360,360h10v10h-10zM370,360h10v10h-10zM380,360h10v10h-10zM390,360h10v10h-10zM400,360h10v10h-10zM410,360h10v10h-10zM420,360h10v10h-10zM430,360h10v10h-10zM440,360h10v10h-10zM450,360h10v10h-10zM460,360h10v10h-10zM470,360h10v10h-10zM480,360h10v10h-10zM490,360h10v10h-10zM310,370h10v10h-10zM320,370h10v10h-10zM330,370h10v10h-10zM340,370h10v10h-10zM480,370h10v10h-10zM490,370h10v10h-10zM500,370h10v10h-10zM510,370h10v10h-10zM520,370h10v10h-10zM290,380h10v10h-10zM300,380h10v10h-10zM310,380h10v10h-10zM520,380h10v10h-10zM530,380h10v10h-10zM540,380h10v10h-10zM550,380h10v10h-10zM270,390h10v10h-10zM280,390h10v10h-10zM540,390h10v10h-10zM550,390h10v10h-10zM560,390h10v10h-10zM570,390h10v10h-10zM830,390h10v10h-10zM840,390h10v10h-10zM850,390h10v10h-10zM860,390h10v10h-10zM250,400h10v10h-10zM260,400h10v10h-10zM560,400h10v10h-10zM570,400h10v10h-10zM580,400h10v10h-10zM820,400h10v10h-10zM860,400h10v10h-10zM870,400h10v10h-10zM240,410h10v10h-10zM250,410h10v10h-10zM580,410h10v10h-10zM590,410h10v10h-10zM600,410h10v10h-10zM810,410h10v10h-10zM820,410h10v10h-10zM860,410h10v10h-10zM870,410h10v10h-10zM220,420h10v10h-10zM230,420h10v10h-10zM590,420h10v10h-10zM600,420h10v10h-10zM610,420h10v10h-10zM810,420h10v10h-10zM820,420h10v10h-10zM870,420h10v10h-10zM940,420h10v10h-10zM950,420h10v10h-10zM210,430h10v10h-10zM220,430h10v10h-10zM610,430h10v10h-10zM620,430h10v10h-10zM810,430h10v10h-10zM820,430h10v10h-10zM860,430h10v10h-10zM870,430h10v10h-10zM930,430h10v10h-10zM940,430h10v10h-10zM950,430h10v10h-10zM960,430h10v10h-10zM200,440h10v10h-10zM210,440h10v10h-10zM620,440h10v10h-10zM630,440h10v10h-10zM820,440h10v10h-10zM860,440h10v10h-10zM920,440h10v10h-10zM960,440h10v10h-10zM970,440h10v10h-10zM190,450h10v10h-10zM200,450h10v10h-10zM630,450h10v10h-10zM640,450h10v10h-10zM830,450h10v10h-10zM860,450h10v10h-10zM910,450h10v10h-10zM920,450h10v10h-10zM970,450h10v10h-10zM180,460h10v10h-10zM640,460h10v10h-10zM650,460h10v10h-10zM830,460h10v10h-10zM860,460h10v10h-10zM910,460h10v10h-10zM920,460h10v10h-10zM970,460h10v10h-10zM170,470h10v10h-10zM180,470h10v10h-10zM650,470h10v10h-10zM660,470h10v10h-10zM830,470h10v10h-10zM860,470h10v10h-10zM910,470h10v10h-10zM920,470h10v10h-10zM960,470h10v10h-10zM970,470h10v10h-10zM170,480h10v10h-10zM660,480h10v10h-10zM670,480h10v10h-10zM830,480h10v10h-10zM850,480h10v10h-10zM860,480h10v10h-10zM910,480h10v10h-10zM950,480h10v10h-10zM960,480h10v10h-10zM160,490h10v10h-10zM380,490h10v10h-10zM390,490h10v10h-10zM400,490h10v10h-10zM410,490h10v10h-10zM660,490h10v10h-10zM670,490h10v10h-10zM830,490h10v10h-10zM850,490h10v10h-10zM860,490h10v10h-10zM910,490h10v10h-10zM950,490h10v10h-10zM150,500h10v10h-10zM160,500h10v10h-10zM350,500h10v10h-10zM360,500h10v10h-10zM370,500h10v10h-10zM380,500h10v10h-10zM390,500h10v10h-10zM400,500h10v10h-10zM410,500h10v10h-10zM420,500h10v10h-10zM430,500h10v10h-10zM440,500h10v10h-10zM670,500h10v10h-10zM680,500h10v10h-10zM830,500h10v10h-10zM850,500h10v10h-10zM860,500h10v10h-10zM900,500h10v10h-10zM910,500h10v10h-10zM940,500h10v10h-10zM150,510h10v10h-10zM330,510h10v10h-10zM340,510h10v10h-10zM350,510h10v10h-10zM430,510h10v10h-10zM440,510h10v10h-10zM450,510h10v10h-10zM460,510h10v10h-10zM680,510h10v10h-10zM690,510h10v10h-10zM820,510h10v10h-10zM830,510h10v10h-10zM850,510h10v10h-10zM860,510h10v10h-10zM900,510h10v10h-10zM940,510h10v10h-10zM140,520h10v10h-10zM320,520h10v10h-10zM330,520h10v10h-10zM360,520h10v10h-10zM370,520h10v10h-10zM380,520h10v10h-10zM390,520h10v10h-10zM400,520h10v10h-10zM410,520h10v10h-10zM420,520h10v10h-10zM450,520h10v10h-10zM460,520h10v10h-10zM470,520h10v10h-10zM680,520h10v10h-10zM690,520h10v10h-10zM820,520h10v10h-10zM830,520h10v10h-10zM850,520h10v10h-10zM900,520h10v10h-10zM930,520h10v10h-10zM140,530h10v10h-10zM310,530h10v10h-10zM350,530h10v10h-10zM360,530h10v10h-10zM410,530h10v10h-10zM420,530h10v10h-10zM430,530h10v10h-10zM440,530h10v10h-10zM460,530h10v10h-10zM470,530h10v10h-10zM480,530h10v10h-10zM690,530h10v10h-10zM820,530h10v10h-10zM830,530h10v10h-10zM850,530h10v10h-10zM890,530h10v10h-10zM900,530h10v10h-10zM930,530h10v10h-10zM130,540h10v10h-10zM140,540h10v10h-10zM300,540h10v10h-10zM310,540h10v10h-10zM330,540h10v10h-10zM340,540h10v10h-10zM440,540h10v10h-10zM450,540h10v10h-10zM470,540h10v10h-10zM480,540h10v10h-10zM490,540h10v10h-10zM690,540h10v10h-10zM700,540h10v10h-10zM820,540h10v10h-10zM830,540h10v10h-10zM850,540h10v10h-10zM860,540h10v10h-10zM870,540h10v10h-10zM880,540h10v10h-10zM890,540h10v10h-10zM920,540h10v10h-10zM130,550h10v10h-10zM290,550h10v10h-10zM300,550h10v10h-10zM320,550h10v10h-10zM330,550h10v10h-10zM450,550h10v10h-10zM460,550h10v10h-10zM480,550h10v10h-10zM490,550h10v10h-10zM700,550h10v10h-10zM810,550h10v10h-10zM820,550h10v10h-10zM920,550h10v10h-10zM130,560h10v10h-10zM290,560h10v10h-10zM320,560h10v10h-10zM460,560h10v10h-10zM470,560h10v10h-10zM490,560h10v10h-10zM500,560h10v10h-10zM700,560h10v10h-10zM800,560h10v10h-10zM910,560h10v10h-10zM920,560h10v10h-10zM930,560h10v10h-10zM130,570h10v10h-10zM290,570h10v10h-10zM310,570h10v10h-10zM470,570h10v10h-10zM480,570h10v10h-10zM500,570h10v10h-10zM700,570h10v10h-10zM710,570h10v10h-10zM790,570h10v10h-10zM920,570h10v10h-10zM930,570h10v10h-10zM940,570h10v10h-10zM120,580h10v10h-10zM130,580h10v10h-10zM280,580h10v10h-10zM290,580h10v10h-10zM310,580h10v10h-10zM470,580h10v10h-10zM480,580h10v10h-10zM500,580h10v10h-10zM510,580h10v10h-10zM700,580h10v10h-10zM710,580h10v10h-10zM780,580h10v10h-10zM930,580h10v10h-10zM940,580h10v10h-10zM120,590h10v10h-10zM130,590h10v10h-10zM280,590h10v10h-10zM300,590h10v10h-10zM310,590h10v10h-10zM480,590h10v10h-10zM500,590h10v10h-10zM510,590h10v10h-10zM710,590h10v10h-10zM770,590h10v10h-10zM780,590h10v10h-10zM940,590h10v10h-10zM950,590h10v10h-10zM120,600h10v10h-10zM280,600h10v10h-10zM300,600h10v10h-10zM310,600h10v10h-10zM480,600h10v10h-10zM490,600h10v10h-10zM510,600h10v10h-10zM710,600h10v10h-10zM770,600h10v10h-10zM940,600h10v10h-10zM950,600h10v10h-10zM120,610h10v10h-10zM280,610h10v10h-10zM300,610h10v10h-10zM310,610h10v10h-10zM480,610h10v10h-10zM490,610h10v10h-10zM510,610h10v10h-10zM710,610h10v10h-10zM760,610h10v10h-10zM950,610h10v10h-10zM960,610h10v10h-10zM120,620h10v10h-10zM130,620h10v10h-10zM280,620h10v10h-10zM290,620h10v10h-10zM310,620h10v10h-10zM490,620h10v10h-10zM510,620h10v10h-10zM710,620h10v10h-10zM740,620h10v10h-10zM750,620h10v10h-10zM950,620h10v10h-10zM960,620h10v10h-10zM120,630h10v10h-10zM130,630h10v10h-10zM280,630h10v10h-10zM290,630h10v10h-10zM310,630h10v10h-10zM320,630h10v10h-10zM490,630h10v10h-10zM510,630h10v10h-10zM710,630h10v10h-10zM720,630h10v10h-10zM730,630h10v10h-10zM740,630h10v10h-10zM950,630h10v10h-10zM960,630h10v10h-10zM120,640h10v10h-10zM130,640h10v10h-10zM290,640h10v10h-10zM300,640h10v10h-10zM320,640h10v10h-10zM330,640h10v10h-10zM490,640h10v10h-10zM510,640h10v10h-10zM710,640h10v10h-10zM720,640h10v10h-10zM950,640h10v10h-10zM960,640h10v10h-10zM130,650h10v10h-10zM290,650h10v10h-10zM300,650h10v10h-10zM310,650h10v10h-10zM330,650h10v10h-10zM340,650h10v10h-10zM350,650h10v10h-10zM490,650h10v10h-10zM510,650h10v10h-10zM960,650h10v10h-10zM130,660h10v10h-10zM300,660h10v10h-10zM310,660h10v10h-10zM320,660h10v10h-10zM340,660h10v10h-10zM350,660h10v10h-10zM490,660h10v10h-10zM510,660h10v10h-10zM960,660h10v10h-10zM130,670h10v10h-10zM140,670h10v10h-10zM310,670h10v10h-10zM320,670h10v10h-10zM330,670h10v10h-10zM340,670h10v10h-10zM350,670h10v10h-10zM490,670h10v10h-10zM510,670h10v10h-10zM950,670h10v10h-10zM960,670h10v10h-10zM130,680h10v10h-10zM140,680h10v10h-10zM480,680h10v10h-10zM490,680h10v10h-10zM510,680h10v10h-10zM950,680h10v10h-10zM960,680h10v10h-10zM140,690h10v10h-10zM150,690h10v10h-10zM480,690h10v10h-10zM510,690h10v10h-10zM950,690h10v10h-10zM140,700h10v10h-10zM150,700h10v10h-10zM480,700h10v10h-10zM500,700h10v10h-10zM510,700h10v10h-10zM950,700h10v10h-10zM150,710h10v10h-10zM160,710h10v10h-10zM470,710h10v10h-10zM480,710h10v10h-10zM500,710h10v10h-10zM940,710h10v10h-10zM950,710h10v10h-10zM160,720h10v10h-10zM170,720h10v10h-10zM470,720h10v10h-10zM490,720h10v10h-10zM500,720h10v10h-10zM940,720h10v10h-10zM160,730h10v10h-10zM170,730h10v10h-10zM180,730h10v10h-10zM460,730h10v10h-10zM490,730h10v10h-10zM930,730h10v10h-10zM940,730h10v10h-10zM170,740h10v10h-10zM180,740h10v10h-10zM190,740h10v10h-10zM450,740h10v10h-10zM460,740h10v10h-10zM480,740h10v10h-10zM490,740h10v10h-10zM930,740h10v10h-10zM130,750h10v10h-10zM140,750h10v10h-10zM150,750h10v10h-10zM160,750h10v10h-10zM180,750h10v10h-10zM190,750h10v10h-10zM200,750h10v10h-10zM440,750h10v10h-10zM450,750h10v10h-10zM480,750h10v10h-10zM920,750h10v10h-10zM930,750h10v10h-10zM90,760h10v10h-10zM100,760h10v10h-10zM110,760h10v10h-10zM120,760h10v10h-10zM130,760h10v10h-10zM160,760h10v10h-10zM170,760h10v10h-10zM190,760h10v10h-10zM200,760h10v10h-10zM210,760h10v10h-10zM430,760h10v10h-10zM440,760h10v10h-10zM470,760h10v10h-10zM920,760h10v10h-10zM60,770h10v10h-10zM70,770h10v10h-10zM80,770h10v10h-10zM90,770h10v10h-10zM170,770h10v10h-10zM180,770h10v10h-10zM210,770h10v10h-10zM220,770h10v10h-10zM230,770h10v10h-10zM410,770h10v10h-10zM420,770h10v10h-10zM430,770h10v10h-10zM460,770h10v10h-10zM910,770h10v10h-10zM40,780h10v10h-10zM50,780h10v10h-10zM60,780h10v10h-10zM180,780h10v10h-10zM190,780h10v10h-10zM200,780h10v10h-10zM220,780h10v10h-10zM230,780h10v10h-10zM240,780h10v10h-10zM250,780h10v10h-10zM390,780h10v10h-10zM400,780h10v10h-10zM410,780h10v10h-10zM440,780h10v10h-10zM450,780h10v10h-10zM900,780h10v10h-10zM910,780h10v10h-10zM20,790h10v10h-10zM30,790h10v10h-10zM40,790h10v10h-10zM190,790h10v10h-10zM200,790h10v10h-10zM210,790h10v10h-10zM240,790h10v10h-10zM250,790h10v10h-10zM260,790h10v10h-10zM270,790h10v10h-10zM280,790h10v10h-10zM290,790h10v10h-10zM300,790h10v10h-10zM340,790h10v10h-10zM350,790h10v10h-10zM360,790h10v10h-10zM370,790h10v10h-10zM380,790h10v10h-10zM390,790h10v10h-10zM430,790h10v10h-10zM440,790h10v10h-10zM890,790h10v10h-10zM900,790h10v10h-10zM10,800h10v10h-10zM20,800h10v10h-10zM210,800h10v10h-10zM220,800h10v10h-10zM230,800h10v10h-10zM240,800h10v10h-10zM280,800h10v10h-10zM290,800h10v10h-10zM300,800h10v10h-10zM310,800h10v10h-10zM320,800h10v10h-10zM330,800h10v10h-10zM340,800h10v10h-10zM350,800h10v10h-10zM360,800h10v10h-10zM410,800h10v10h-10zM420,800h10v10h-10zM880,800h10v10h-10zM890,800h10v10h-10zM10,810h10v10h-10zM230,810h10v10h-10zM240,810h10v10h-10zM250,810h10v10h-10zM260,810h10v10h-10zM270,810h10v10h-10zM380,810h10v10h-10zM390,810h10v10h-10zM400,810h10v10h-10zM410,810h10v10h-10zM870,810h10v10h-10zM880,810h10v10h-10zM0,820h10v10h-10zM10,820h10v10h-10zM260,820h10v10h-10zM270,820h10v10h-10zM280,820h10v10h-10zM290,820h10v10h-10zM300,820h10v10h-10zM310,820h10v10h-10zM320,820h10v10h-10zM330,820h10v10h-10zM340,820h10v10h-10zM350,820h10v10h-10zM360,820h10v10h-10zM370,820h10v10h-10zM380,820h10v10h-10zM860,820h10v10h-10zM870,820h10v10h-10zM10,830h10v10h-10zM20,830h10v10h-10zM850,830h10v10h-10zM860,830h10v10h-10zM10,840h10v10h-10zM20,840h10v10h-10zM30,840h10v10h-10zM830,840h10v10h-10zM840,840h10v10h-10zM30,850h10v10h-10zM40,850h10v10h-10zM50,850h10v10h-10zM60,850h10v10h-10zM820,850h10v10h-10zM830,850h10v10h-10zM50,860h10v10h-10zM60,860h10v10h-10zM70,860h10v10h-10zM80,860h10v10h-10zM90,860h10v10h-10zM790,860h10v10h-10zM800,860h10v10h-10zM810,860h10v10h-10zM80,870h10v10h-10zM90,870h10v10h-10zM100,870h10v10h-10zM110,870h10v10h-10zM120,870h10v10h-10zM130,870h10v10h-10zM140,870h10v10h-10zM150,870h10v10h-10zM760,870h10v10h-10zM770,870h10v10h-10zM780,870h10v10h-10zM790,870h10v10h-10zM130,880h10v10h-10zM140,880h10v10h-10zM150,880h10v10h-10zM160,880h10v10h-10zM170,880h10v10h-10zM180,880h10v10h-10zM190,880h10v10h-10zM200,880h10v10h-10zM210,880h10v10h-10zM220,880h10v10h-10zM230,880h10v10h-10zM700,880h10v10h-10zM710,880h10v10h-10zM720,880h10v10h-10zM730,880h10v10h-10zM740,880h10v10h-10zM750,880h10v10h-10zM760,880h10v10h-10zM200,890h10v10h-10zM210,890h10v10h-10zM220,890h10v10h-10zM230,890h10v10h-10zM240,890h10v10h-10zM250,890h10v10h-10zM260,890h10v10h-10zM270,890h10v10h-10zM280,890h10v10h-10zM290,890h10v10h-10zM300,890h10v10h-10zM310,890h10v10h-10zM320,890h10v10h-10zM330,890h10v10h-10zM340,890h10v10h-10zM350,890h10v10h-10zM600,890h10v10h-10zM610,890h10v10h-10zM620,890h10v10h-10zM630,890h10v10h-10zM640,890h10v10h-10zM650,890h10v10h-10zM660,890h10v10h-10zM670,890h10v10h-10zM680,890h10v10h-10zM690,890h10v10h-10zM700,890h10v10h-10zM710,890h10v10h-10zM360,900h10v10h-10zM370,900h10v10h-10zM380,900h10v10h-10zM390,900h10v10h-10zM400,900h10v10h-10zM410,900h10v10h-10zM420,900h10v10h-10zM430,900h10v10h-10zM440,900h10v10h-10zM450,900h10v10h-10zM460,900h10v10h-10zM470,900h10v10h-10zM480,900h10v10h-10zM490,900h10v10h-10zM500,900h10v10h-10zM510,900h10v10h-10zM520,900h10v10h-10zM530,900h10v10h-10zM540,900h10v10h-10zM550,900h10v10h-10zM560,900h10v10h-10zM570,900h10v10h-10zM580,900h10v10h-10zM590,900h10v10h-10zM810,920h10v10h-10zM800,930h10v10h-10zM810,930h10v10h-10zM820,930h10v10h-10zM800,940h10v10h-10zM810,940h10v10h-10zM820,940h10v10h-10zM830,940h10v10h-10zM800,950h10v10h-10zM810,950h10v10h-10zM830,950h10v10h-10zM840,950h10v10h-10zM800,960h10v10h-10zM810,960h10v10h-10zM840,960h10v10h-10zM850,960h10v10h-10zM800,970h10v10h-10zM810,970h10v10h-10zM840,970h10v10h-10zM850,970h10v10h-10zM800,980h10v10h-10zM810,980h10v10h-10zM820,980h10v10h-10zM830,980h10v10h-10zM840,980h10v10h-10zM850,980h10v10h-10zM800,990h10v10h-10zM810,990h10v10h-10zM820,990h10v10h-10zM830,990h10v10h-10zM840,990h10v10h-10z" fill="#3b82f6" /></svg>