<svg width="800" height="800" viewBox="0 0 800 800" xmlns="http://www.w3.org/2000/svg">
        <defs></defs>
        <path d="M 47.00 271.00 C 47.00 271.00 157.85 269.95 224.00 271.00 C 229.57 271.09 231.02 271.51 236.00 274.00 C 242.92 277.46 245.39 277.78 250.00 284.00 C 256.13 292.26 257.72 294.80 259.00 305.00 C 261.85 327.77 259.00 356.00 259.00 356.00 C 259.00 356.00 268.61 354.98 276.00 357.00 C 283.77 359.12 285.90 359.74 292.00 365.00 C 299.29 371.29 301.34 373.09 305.00 382.00 C 308.79 391.24 308.75 394.04 308.00 404.00 C 307.36 412.51 306.12 414.52 302.00 422.00 C 298.77 427.86 297.47 429.15 292.00 433.00 C 285.09 437.87 283.16 438.78 275.00 441.00 C 268.04 442.90 259.00 442.00 259.00 442.00 C 259.00 442.00 260.10 475.85 258.00 500.00 C 257.53 505.42 256.23 506.63 253.00 511.00 C 248.46 517.14 247.32 518.71 241.00 523.00 C 235.82 526.52 234.27 527.84 228.00 528.00 C 159.05 529.75 55.55 530.30 44.00 528.00 C 32.45 525.70 30.02 522.57 22.00 514.00 C 16.35 507.96 15.27 505.27 15.00 497.00 C 12.55 422.80 13.25 375.15 15.00 302.00 C 15.16 295.31 16.63 293.78 20.00 288.00 C 23.05 282.77 23.79 281.09 29.00 278.00 C 36.35 273.65 47.00 272.00 47.00 272.00 L 47.00 271.00 Z" fill="#3b82f6" stroke="#3b82f6" stroke-width="5" stroke-linecap="round" stroke-linejoin="round"/><path d="M 318.00 271.00 C 318.00 271.00 419.35 269.25 482.00 271.00 C 489.11 271.20 490.92 272.31 497.00 276.00 C 503.81 280.13 505.64 281.34 510.00 288.00 C 514.45 294.79 515.29 296.92 516.00 305.00 C 518.02 327.86 516.00 356.00 516.00 356.00 C 516.00 356.00 527.49 354.94 536.00 358.00 C 545.52 361.42 547.98 362.73 555.00 370.00 C 561.01 376.23 561.68 378.66 564.00 387.00 C 566.29 395.25 566.00 397.50 565.00 406.00 C 564.17 413.07 563.69 414.92 560.00 421.00 C 555.87 427.81 554.24 429.06 548.00 434.00 C 543.27 437.75 541.86 438.54 536.00 440.00 C 527.23 442.19 516.00 442.00 516.00 442.00 C 516.00 442.00 517.10 475.85 515.00 500.00 C 514.53 505.42 513.23 506.63 510.00 511.00 C 505.46 517.14 504.32 518.71 498.00 523.00 C 492.82 526.52 491.27 527.83 485.00 528.00 C 420.60 529.75 377.70 529.40 314.00 528.00 C 308.73 527.88 307.41 526.88 303.00 524.00 C 296.86 520.00 295.11 519.06 291.00 513.00 C 286.35 506.15 284.89 504.23 284.00 496.00 C 281.69 474.52 284.00 448.00 284.00 448.00 C 284.00 448.00 296.92 446.05 306.00 441.00 C 313.52 436.82 315.18 435.12 320.00 428.00 C 325.76 419.48 326.63 417.00 329.00 407.00 C 330.76 399.56 330.37 397.53 329.00 390.00 C 327.62 382.43 326.73 380.72 323.00 374.00 C 319.89 368.41 318.83 367.20 314.00 363.00 C 308.35 358.09 306.95 356.78 300.00 354.00 C 293.20 351.28 284.00 351.00 284.00 351.00 C 284.00 351.00 280.58 323.78 284.00 302.00 C 285.66 291.46 288.20 289.22 295.00 281.00 C 299.38 275.71 301.60 275.50 308.00 273.00 C 312.21 271.35 318.00 272.00 318.00 272.00 L 318.00 271.00 Z" fill="#3b82f6" stroke="#3b82f6" stroke-width="5" stroke-linecap="round" stroke-linejoin="round"/><path d="M 575.00 271.00 C 575.00 271.00 684.10 268.90 752.00 271.00 C 760.11 271.25 761.80 273.26 769.00 277.00 C 773.24 279.21 774.35 280.02 777.00 284.00 C 781.69 291.03 784.69 292.55 785.00 301.00 C 787.80 376.25 789.20 422.70 785.00 499.00 C 784.42 509.48 780.55 511.71 773.00 519.00 C 766.49 525.29 764.05 527.60 755.00 528.00 C 684.30 531.15 579.04 528.87 571.00 528.00 C 562.96 527.13 558.14 524.38 551.00 517.00 C 544.00 509.77 542.44 506.96 541.00 497.00 C 537.84 475.18 541.00 448.00 541.00 448.00 C 541.00 448.00 554.88 445.21 565.00 440.00 C 570.95 436.94 572.25 435.54 576.00 430.00 C 581.87 421.33 583.58 419.18 586.00 409.00 C 588.19 399.81 587.76 397.29 586.00 388.00 C 584.54 380.28 583.19 378.65 579.00 372.00 C 575.44 366.34 574.25 365.15 569.00 361.00 C 563.31 356.50 561.83 355.44 555.00 353.00 C 549.01 350.86 541.00 351.00 541.00 351.00 C 541.00 351.00 538.94 323.95 541.00 302.00 C 541.68 294.76 543.15 293.16 547.00 287.00 C 550.04 282.14 550.95 280.70 556.00 278.00 C 563.90 273.77 575.00 272.00 575.00 272.00 L 575.00 271.00 Z" fill="#3b82f6" stroke="#3b82f6" stroke-width="5" stroke-linecap="round" stroke-linejoin="round"/>
    </svg>