<svg width="800" height="800" viewBox="0 0 800 800" xmlns="http://www.w3.org/2000/svg">
        <defs></defs>
        <path d="M 225.00 246.00 C 230.44 246.15 231.67 247.71 236.00 251.00 C 243.09 256.39 245.06 257.59 250.00 265.00 C 281.50 312.25 298.35 337.00 326.00 386.00 C 330.25 393.54 329.31 396.35 329.00 405.00 C 328.84 409.43 327.31 410.22 325.00 414.00 C 298.75 457.05 285.50 480.75 254.00 528.00 C 246.93 538.60 244.79 540.84 235.00 549.00 C 230.95 552.37 229.27 552.88 224.00 553.00 C 160.30 554.40 118.45 555.80 53.00 553.00 C 44.96 552.66 43.35 549.94 37.00 545.00 C 30.95 540.30 29.51 538.81 26.00 532.00 C 21.70 523.65 20.23 521.39 20.00 512.00 C 17.90 425.55 16.85 372.85 20.00 285.00 C 20.41 273.47 23.15 270.94 29.00 261.00 C 32.39 255.23 34.36 254.59 40.00 251.00 C 44.44 248.17 51.00 247.00 51.00 247.00 C 51.00 247.00 160.25 244.25 225.00 246.00 Z" fill="#3b82f6" stroke="#3b82f6" stroke-width="5.1" stroke-linecap="round" stroke-linejoin="round"/><path d="M 316.00 246.00 C 316.00 246.00 410.30 244.25 467.00 246.00 C 472.43 246.17 473.94 247.38 478.00 251.00 C 486.81 258.87 488.50 261.14 495.00 271.00 C 528.25 321.40 545.00 349.50 573.00 395.00 C 574.49 397.42 576.40 398.52 575.00 401.00 C 554.00 438.10 513.00 501.00 513.00 501.00 C 513.00 501.00 500.56 523.36 488.00 540.00 C 483.76 545.61 481.98 546.30 476.00 550.00 C 472.37 552.25 471.27 552.92 467.00 553.00 C 411.35 554.05 373.35 554.75 317.00 553.00 C 311.57 552.83 310.27 551.37 306.00 548.00 C 301.48 544.43 299.82 543.47 298.00 538.00 C 295.14 529.42 295.68 527.04 296.00 518.00 C 296.14 514.16 296.98 513.27 299.00 510.00 C 324.55 468.70 369.00 400.00 369.00 400.00 C 369.00 400.00 320.85 332.00 296.00 283.00 C 291.30 273.73 294.71 269.86 298.00 260.00 C 299.91 254.26 302.09 253.54 307.00 250.00 C 310.46 247.50 316.00 247.00 316.00 247.00 L 316.00 246.00 Z" fill="#3b82f6" stroke="#3b82f6" stroke-width="5" stroke-linecap="round" stroke-linejoin="round"/><path d="M 568.00 246.00 C 568.00 246.00 678.45 243.55 746.00 246.00 C 753.44 246.27 754.84 248.81 761.00 253.00 C 766.26 256.58 767.96 257.41 771.00 263.00 C 776.70 273.51 779.57 276.05 780.00 288.00 C 783.15 375.50 782.80 426.55 780.00 513.00 C 779.66 523.53 777.67 526.12 772.00 535.00 C 767.03 542.78 764.59 543.74 757.00 549.00 C 752.67 552.00 751.27 552.89 746.00 553.00 C 679.50 554.40 580.97 555.31 567.00 553.00 C 553.03 550.69 556.20 547.55 549.00 541.00 C 546.02 538.29 545.57 536.98 545.00 533.00 C 543.73 524.09 540.74 520.93 545.00 513.00 C 569.85 466.80 616.00 401.00 616.00 401.00 C 616.00 401.00 569.85 332.25 545.00 285.00 C 541.02 277.43 543.75 274.46 545.00 266.00 C 545.59 262.02 545.90 260.56 549.00 258.00 C 556.62 251.71 568.00 247.00 568.00 247.00 L 568.00 246.00 Z" fill="#3b82f6" stroke="#3b82f6" stroke-width="5" stroke-linecap="round" stroke-linejoin="round"/>
    </svg>