<svg width="800" height="800" viewBox="0 0 800 800" xmlns="http://www.w3.org/2000/svg">
        <defs></defs>
        <path d="M 137.29 271.00 C 137.29 271.00 248.14 269.95 314.29 271.00 C 319.86 271.09 321.31 271.51 326.29 274.00 C 333.22 277.46 335.68 277.78 340.29 284.00 C 346.42 292.26 348.02 294.80 349.29 305.00 C 352.14 327.77 349.29 356.00 349.29 356.00 C 349.29 356.00 358.90 354.98 366.29 357.00 C 374.06 359.12 376.20 359.74 382.29 365.00 C 389.59 371.29 391.64 373.09 395.29 382.00 C 399.09 391.24 399.04 394.04 398.29 404.00 C 397.65 412.51 396.42 414.52 392.29 422.00 C 389.06 427.86 387.76 429.15 382.29 433.00 C 375.38 437.87 373.45 438.78 365.29 441.00 C 358.33 442.90 349.29 442.00 349.29 442.00 C 349.29 442.00 350.39 475.85 348.29 500.00 C 347.82 505.42 346.53 506.63 343.29 511.00 C 338.75 517.14 337.61 518.71 331.29 523.00 C 326.11 526.52 324.56 527.84 318.29 528.00 C 249.34 529.75 145.84 530.30 134.29 528.00 C 122.74 525.70 120.31 522.57 112.29 514.00 C 106.64 507.96 105.57 505.27 105.29 497.00 C 102.84 422.80 103.54 375.15 105.29 302.00 C 105.45 295.31 106.92 293.78 110.29 288.00 C 113.34 282.77 114.09 281.09 119.29 278.00 C 126.64 273.65 137.29 272.00 137.29 272.00 L 137.29 271.00 Z" fill="#3b82f6" stroke="#3b82f6" stroke-width="5" stroke-linecap="round" stroke-linejoin="round"/><path d="M 485.29 271.00 C 485.29 271.00 594.39 268.90 662.29 271.00 C 670.40 271.25 672.10 273.26 679.29 277.00 C 683.54 279.21 684.64 280.02 687.29 284.00 C 691.98 291.03 694.98 292.55 695.29 301.00 C 698.09 376.25 699.49 422.70 695.29 499.00 C 694.72 509.48 690.84 511.71 683.29 519.00 C 676.78 525.29 674.34 527.60 665.29 528.00 C 594.59 531.15 489.33 528.87 481.29 528.00 C 473.26 527.13 468.44 524.38 461.29 517.00 C 454.30 509.77 452.74 506.96 451.29 497.00 C 448.13 475.18 451.29 448.00 451.29 448.00 C 451.29 448.00 465.17 445.21 475.29 440.00 C 481.24 436.94 482.54 435.54 486.29 430.00 C 492.16 421.33 493.87 419.18 496.29 409.00 C 498.48 399.81 498.05 397.29 496.29 388.00 C 494.83 380.28 493.48 378.65 489.29 372.00 C 485.73 366.34 484.54 365.15 479.29 361.00 C 473.60 356.50 472.13 355.44 465.29 353.00 C 459.30 350.86 451.29 351.00 451.29 351.00 C 451.29 351.00 449.23 323.95 451.29 302.00 C 451.97 294.76 453.44 293.16 457.29 287.00 C 460.33 282.14 461.24 280.70 466.29 278.00 C 474.20 273.77 485.29 272.00 485.29 272.00 L 485.29 271.00 Z" fill="#3b82f6" stroke="#3b82f6" stroke-width="5" stroke-linecap="round" stroke-linejoin="round"/>
    </svg>