<svg width="800" height="800" viewBox="0 0 800 800" xmlns="http://www.w3.org/2000/svg">
        <defs></defs>
        <path d="M 666.68 127.84 C 666.68 127.84 674.73 120.34 682.72 116.67 C 690.71 112.99 692.87 112.44 701.65 111.76 C 710.42 111.07 712.64 111.28 721.11 113.67 C 729.58 116.05 731.59 117.02 738.71 122.19 C 745.83 127.35 747.38 128.95 752.26 136.26 C 757.15 143.56 758.04 145.60 760.09 154.14 C 762.14 162.68 761.49 164.85 761.23 173.63 C 761.10 178.03 760.88 179.13 759.22 183.21 C 755.93 191.36 756.46 194.29 750.33 200.60 C 652.42 301.42 610.80 366.61 479.49 471.28 C 441.47 501.59 375.16 499.68 375.16 499.68 C 375.16 499.68 372.79 496.91 373.40 494.55 C 383.10 456.53 372.62 428.89 402.89 391.05 C 505.54 262.70 574.35 219.96 666.68 127.84 L 666.68 127.84 Z" fill="none" stroke="#3b82f6" stroke-width="5" stroke-linecap="round" stroke-linejoin="round"/><path d="M 33.37 553.50 C 33.37 553.50 34.99 571.34 38.36 585.68 C 40.05 592.86 40.71 594.52 44.56 601.14 C 52.26 614.36 53.31 617.76 63.94 629.59 C 74.56 641.42 77.51 643.96 91.43 653.32 C 105.36 662.68 109.50 663.76 125.35 670.87 C 133.29 674.44 135.46 674.65 144.09 676.95 C 152.72 679.26 154.62 680.13 163.63 681.10 C 181.62 683.03 185.74 684.16 203.87 683.38 C 222.00 682.60 225.94 681.12 243.57 677.64 C 252.40 675.90 254.17 674.86 262.44 671.81 C 270.70 668.77 272.83 668.37 280.24 664.13 C 295.05 655.69 298.24 653.62 311.63 643.76 C 318.33 638.82 319.74 637.50 324.73 631.39 C 334.68 619.18 336.71 616.32 344.69 603.20 C 348.68 596.64 349.38 594.99 351.22 587.83 C 354.90 573.54 356.90 555.72 356.90 555.72" fill="none" stroke="#3b82f6" stroke-width="5" stroke-linecap="round" stroke-linejoin="round"/><path d="M 382.60 553.50 C 382.60 553.50 384.22 571.34 387.59 585.68 C 389.28 592.86 389.94 594.52 393.80 601.14 C 401.49 614.36 402.54 617.76 413.17 629.59 C 423.79 641.42 426.74 643.96 440.66 653.32 C 454.59 662.68 458.73 663.76 474.58 670.87 C 482.52 674.44 484.69 674.65 493.32 676.95 C 501.95 679.26 503.85 680.13 512.86 681.10 C 530.86 683.03 534.98 684.16 553.10 683.38 C 571.23 682.60 575.17 681.12 592.80 677.64 C 601.63 675.90 603.40 674.86 611.67 671.81 C 619.93 668.77 622.06 668.37 629.47 664.13 C 644.28 655.69 647.47 653.62 660.86 643.76 C 667.57 638.82 668.97 637.50 673.96 631.39 C 683.91 619.18 685.94 616.32 693.92 603.20 C 697.91 596.64 698.61 594.99 700.45 587.83 C 704.13 573.54 706.13 555.72 706.13 555.72" fill="none" stroke="#3b82f6" stroke-width="5" stroke-linecap="round" stroke-linejoin="round"/>
    </svg>