<svg width="800" height="800" viewBox="0 0 800 800" xmlns="http://www.w3.org/2000/svg">
        <defs></defs>
        <path d="M 311.00 246.00 C 316.44 246.15 317.67 247.71 322.00 251.00 C 329.09 256.39 331.06 257.59 336.00 265.00 C 367.50 312.25 384.35 337.00 412.00 386.00 C 416.25 393.54 415.31 396.35 415.00 405.00 C 414.84 409.43 413.31 410.22 411.00 414.00 C 384.75 457.05 371.50 480.75 340.00 528.00 C 332.93 538.60 330.79 540.84 321.00 549.00 C 316.95 552.37 315.27 552.88 310.00 553.00 C 246.30 554.40 204.45 555.80 139.00 553.00 C 130.96 552.66 129.35 549.94 123.00 545.00 C 116.95 540.30 115.51 538.81 112.00 532.00 C 107.70 523.65 106.23 521.39 106.00 512.00 C 103.90 425.55 102.85 372.85 106.00 285.00 C 106.41 273.47 109.15 270.94 115.00 261.00 C 118.39 255.23 120.36 254.59 126.00 251.00 C 130.44 248.17 137.00 247.00 137.00 247.00 C 137.00 247.00 246.25 244.25 311.00 246.00 Z" fill="#3b82f6" stroke="#3b82f6" stroke-width="5.1" stroke-linecap="round" stroke-linejoin="round"/><path d="M 482.00 246.00 C 482.00 246.00 592.45 243.55 660.00 246.00 C 667.44 246.27 668.84 248.81 675.00 253.00 C 680.26 256.58 681.96 257.41 685.00 263.00 C 690.70 273.51 693.57 276.05 694.00 288.00 C 697.15 375.50 696.80 426.55 694.00 513.00 C 693.66 523.53 691.67 526.12 686.00 535.00 C 681.03 542.78 678.59 543.74 671.00 549.00 C 666.67 552.00 665.27 552.89 660.00 553.00 C 593.50 554.40 494.97 555.31 481.00 553.00 C 467.03 550.69 470.20 547.55 463.00 541.00 C 460.02 538.29 459.57 536.98 459.00 533.00 C 457.73 524.09 454.74 520.93 459.00 513.00 C 483.85 466.80 530.00 401.00 530.00 401.00 C 530.00 401.00 483.85 332.25 459.00 285.00 C 455.02 277.43 457.75 274.46 459.00 266.00 C 459.59 262.02 459.90 260.56 463.00 258.00 C 470.62 251.71 482.00 247.00 482.00 247.00 L 482.00 246.00 Z" fill="#3b82f6" stroke="#3b82f6" stroke-width="5" stroke-linecap="round" stroke-linejoin="round"/>
    </svg>